/* XPM */
static char *vidalia[] = {
/* columns rows colors chars-per-pixel */
"30 30 114 2",
"   c #010101",
".  c #0A0A0A",
"X  c #131313",
"o  c #1B1B1B",
"O  c #242424",
"+  c #2C2C2C",
"@  c #333333",
"#  c #373A37",
"$  c #3B3C3B",
"%  c #196919",
"&  c #205D20",
"*  c #324132",
"=  c #3B4E3B",
"-  c #246724",
";  c #3C6D3C",
":  c #434343",
">  c #454A45",
",  c #4B4B4B",
"<  c #4A534A",
"1  c #545454",
"2  c #5B5C5B",
"3  c #476847",
"4  c #5B625B",
"5  c #587858",
"6  c #636463",
"7  c #606B60",
"8  c #6B6B6B",
"9  c #657A65",
"0  c #6F766F",
"q  c #737473",
"w  c #707D70",
"e  c #7B7B7B",
"r  c #078907",
"t  c #039303",
"y  c #009C00",
"u  c #0C9E0C",
"i  c #119411",
"p  c #03A103",
"a  c #03AB02",
"s  c #09A409",
"d  c #10A90F",
"f  c #01B300",
"g  c #0DB20C",
"h  c #0DB80C",
"j  c #10B60F",
"k  c #19A619",
"l  c #13B912",
"z  c #28A528",
"x  c #2AA92A",
"c  c #3BB63B",
"v  c #3EC03D",
"b  c #479747",
"n  c #5C945C",
"m  c #599A59",
"M  c #40B940",
"N  c #58A758",
"B  c #54B754",
"V  c #6D816D",
"C  c #679B67",
"Z  c #6C9A6C",
"A  c #738473",
"S  c #788478",
"D  c #7F8A7F",
"F  c #6FA26F",
"G  c #60BA60",
"H  c #6AB76A",
"J  c #5BCD5A",
"K  c #6ACC69",
"L  c #7FCE7E",
"P  c #828282",
"I  c #848A84",
"U  c #8C8C8C",
"Y  c #929392",
"T  c #969896",
"R  c #9C9D9C",
"E  c #9BAA9B",
"W  c gray65",
"Q  c #A3ABA3",
"!  c #ACACAC",
"~  c #ACB0AC",
"^  c #B4B4B4",
"/  c #B9B9B9",
"(  c #96C296",
")  c #96CD96",
"_  c #A5C3A5",
"`  c #A3CFA3",
"'  c #A8C6A8",
"]  c #ADC8AD",
"[  c #B4CCB4",
"{  c #B8C7B8",
"}  c #BDCEBD",
"|  c #B4D3B4",
" . c #B4D8B4",
".. c #BADCBA",
"X. c #C4C4C4",
"o. c #C2CBC2",
"O. c #CCCCCC",
"+. c #C3D3C3",
"@. c #C0DDC0",
"#. c #CBDCCB",
"$. c #D4D4D4",
"%. c #DDDDDD",
"&. c #C7E4C7",
"*. c #CFE1CF",
"=. c #D3EBD3",
"-. c #DFE5DF",
";. c #D8EAD8",
":. c #D5F1D5",
">. c #DBF1DB",
",. c #E4E4E4",
"<. c #ECECEC",
"1. c #E5F6E5",
"2. c gray94",
"3. c None",
/* pixels */
"3.3.3.3.3.3.3.3.3.3.3.3.3.3.3.3.3.3.3.3.3.3.3.3.3.3.3.3.3.3.",
"3.3.3.3.3.3.3.3.3.3.3.3.3.3.3.3.3.3.3.3.3.3.3.3.3.3.3.3.3.3.",
"3.3.3.3.3.3.3.3.3.3.3.    o + + o     3.3.3.3.3.3.3.3.3.3.3.",
"3.3.3.3.3.3.3.3.3.  1 W ,.,.%.%.%.$.R ,   3.3.3.3.3.3.3.3.3.",
"3.3.3.3.3.3.3.  , $.%.T 6 8 1 , 6 6 U X./ :   3.3.3.3.3.3.3.",
"3.3.3.3.3.3.. Y <.U 2 > , 4 9 V 7 , , 2 e O.P . 3.3.3.3.3.3.",
"3.3.3.3.3.. ! $.1 < < n ) :.1.1.>.` F w q 1 / Y . 3.3.3.3.3.",
"3.3.3.3.  Y $.1 $ ; B =.] S q q I [ >.G Z I 1 ^ q   3.3.3.3.",
"3.3.3.3., %., # - c =.2 , 1 2 6 2 1 8 ;.M m T 1 ^ $ 3.3.3.3.",
"3.3.3.. O.P > & p &.> + # : > , > : # 2 ..d C R q Y   3.3.3.",
"3.3.3.1 O.2 * t J D . o O + @ @ @ + O o Q v u Q 8 R @ 3.3.3.",
"3.3.  R U > % a  .o   . X o o o o o X . $ ( f N ~ q 6   3.3.",
"3.3.  O.6 # r f #.          . . .         +.f k O.1 e   3.3.",
"3.3.o $.6 = y h }                         +.l a { 2 P . 3.3.",
"3.3.+ O.6 3 p | Y                         4 *.j _ 8 e X 3.3.",
"3.3.+ O.6 5 s +.                            o.j ' 8 8 X 3.3.",
"3.3.o O.6 A y @..                         . +.a +., , . 3.3.",
"3.3.  X.6 U i K 0                         4 L k %.@ #   3.3.",
"3.3.  U P Y b a #.o                     . #.g H X.> O   3.3.",
"3.3.3.: ^ 8 E z #.O                     o #.x #.2 : X 3.3.3.",
"3.3.3.  R q W o.O                         O -.O., @   3.3.3.",
"3.3.3.3.# W 1 X.2                         8 <., : X 3.3.3.3.",
"3.3.3.3.  6 Y 1 O.P .                 . Y <., : O   3.3.3.3.",
"3.3.3.3.3.. 8 P , X.O.6 o         o 8 ,.%.: : O   3.3.3.3.3.",
"3.3.3.3.3.3.  , e 2 2 X.%.O./ / O.2.%.6 , : O   3.3.3.3.3.3.",
"3.3.3.3.3.3.3.  O 1 1 , @ , 6 6 2 @ , : @ X   3.3.3.3.3.3.3.",
"3.3.3.3.3.3.3.3.3.  X O @ $ > , $ @ O X   3.3.3.3.3.3.3.3.3.",
"3.3.3.3.3.3.3.3.3.3.3.    . . .       3.3.3.3.3.3.3.3.3.3.3.",
"3.3.3.3.3.3.3.3.3.3.3.3.3.3.3.3.3.3.3.3.3.3.3.3.3.3.3.3.3.3.",
"3.3.3.3.3.3.3.3.3.3.3.3.3.3.3.3.3.3.3.3.3.3.3.3.3.3.3.3.3.3."
};
